<svg id="Layer_1" data-name="Layer 1" xmlns="http://www.w3.org/2000/svg" viewBox="0 0 439.43 101.25"><defs><style>.cls-1{fill:#a61a16;}.cls-2{fill:#1d1d1b;}</style></defs><path class="cls-1" d="M155.38,421H140.26l-6.94-12.66H96.69L90,421H76.53l32.71-57.8h13Zm-27.66-23.08-12.43-23.52-12.88,23.52Z" transform="translate(-76.48 -363.15)"/><path class="cls-1" d="M242.52,421H223.25L200,399.11H187.19V421H174v-57.8h49.51q13,0,13,11.2v13.56c0,5.59-2.24,9.07-6.72,10.41q-2.58.78-13.89.79Zm-19-36.29v-7c0-1.94-.56-3.21-1.68-3.8a8.61,8.61,0,0,0-4.37-.79H187.19v16.13h30.24a8.61,8.61,0,0,0,4.37-.79C222.92,387.87,223.48,386.6,223.48,384.66Z" transform="translate(-76.48 -363.15)"/><path class="cls-1" d="M323.49,421H263.8v-57.8h59.13V373H277.24v12.88h26.65v9.86H277.24v14.33h46.25Z" transform="translate(-76.48 -363.15)"/><path class="cls-1" d="M416.23,421H407L364.6,385.22a40.66,40.66,0,0,1-4.82-4.71q.56,5.61.56,8.85V421h-12.1v-57.8h9.19l40.65,34.05a63,63,0,0,1,6.61,6.27q-.56-8.06-.56-10V363.15h12.1Z" transform="translate(-76.48 -363.15)"/><path class="cls-1" d="M515.91,391.71q0,16.8-12.77,24.75-7.29,4.49-23.75,4.49H445.68v-57.8h37.19q15,0,23.52,6.72Q515.9,377.27,515.91,391.71ZM502,391.49q0-18-19-18H459.12v36.62h17.36q12.33,0,17.92-3.13Q502,402.69,502,391.49Z" transform="translate(-76.48 -363.15)"/><path class="cls-2" d="M79.69,464.14H76.48V433.69h3.21Z" transform="translate(-76.48 -363.15)"/><path class="cls-2" d="M111.88,458.4V433.69h3.18v30.45h-2.65l-19.58-24.7v24.7H89.61V433.69h2.66Z" transform="translate(-76.48 -363.15)"/><path class="cls-2" d="M134.94,460.14l11.74-26.45H150l-13.49,30.45h-3.17L119.8,433.69h3.48Z" transform="translate(-76.48 -363.15)"/><path class="cls-2" d="M157.56,450.05v11.31h18.31v2.78H154.34V433.69h20.88v2.79H157.56v10.83h15.75v2.74Z" transform="translate(-76.48 -363.15)"/><path class="cls-2" d="M185.33,463.32a12,12,0,0,1-4.8-2.87l1.26-2.48a12,12,0,0,0,4.39,2.67,16.1,16.1,0,0,0,5.66,1c2.72,0,4.77-.5,6.13-1.5a4.61,4.61,0,0,0,2-3.89,3.91,3.91,0,0,0-1.1-2.91,7.45,7.45,0,0,0-2.72-1.68,44.28,44.28,0,0,0-4.48-1.28,46.37,46.37,0,0,1-5.49-1.68,8.86,8.86,0,0,1-3.5-2.46,6.53,6.53,0,0,1-1.45-4.48,7.59,7.59,0,0,1,1.21-4.19,8.4,8.4,0,0,1,3.74-3,15.42,15.42,0,0,1,6.27-1.13,18.39,18.39,0,0,1,5.11.72,14.76,14.76,0,0,1,4.33,2l-1.09,2.57a15.07,15.07,0,0,0-4.09-1.9,15.27,15.27,0,0,0-4.26-.63q-4,0-6,1.55a4.8,4.8,0,0,0-2,4,4,4,0,0,0,1.11,2.93,7.29,7.29,0,0,0,2.78,1.7c1.12.39,2.62.82,4.51,1.28a46,46,0,0,1,5.41,1.63,8.83,8.83,0,0,1,3.5,2.44,6.44,6.44,0,0,1,1.44,4.42,7.46,7.46,0,0,1-1.24,4.19,8.31,8.31,0,0,1-3.81,3,15.86,15.86,0,0,1-6.3,1.11A19.72,19.72,0,0,1,185.33,463.32Z" transform="translate(-76.48 -363.15)"/><path class="cls-2" d="M218.89,464.14h-3.22V436.48H205v-2.79h24.62v2.79h-10.7Z" transform="translate(-76.48 -363.15)"/><path class="cls-2" d="M238,464.14h-3.22V433.69H238Z" transform="translate(-76.48 -363.15)"/><path class="cls-2" d="M270.13,458.4V433.69h3.18v30.45h-2.65l-19.58-24.7v24.7h-3.22V433.69h2.66Z" transform="translate(-76.48 -363.15)"/><path class="cls-2" d="M304.67,448.92h3.09v11.61a14.7,14.7,0,0,1-5,2.87,18.73,18.73,0,0,1-6.14,1,16.78,16.78,0,0,1-8.22-2,14.7,14.7,0,0,1-5.74-5.54,16.13,16.13,0,0,1,0-15.88,14.8,14.8,0,0,1,5.74-5.55,17,17,0,0,1,8.27-2,17.79,17.79,0,0,1,6.39,1.11,12.81,12.81,0,0,1,4.92,3.29l-2,2a12.48,12.48,0,0,0-9.17-3.57,13.76,13.76,0,0,0-6.68,1.63,12,12,0,0,0-4.68,4.53,13.15,13.15,0,0,0,0,12.9,12.19,12.19,0,0,0,4.66,4.52,13.41,13.41,0,0,0,6.65,1.65,13.23,13.23,0,0,0,8-2.35Z" transform="translate(-76.48 -363.15)"/><path class="cls-2" d="M331.47,464.14h-3.22V433.69h3.22Z" transform="translate(-76.48 -363.15)"/><path class="cls-2" d="M363.66,458.4V433.69h3.17v30.45h-2.65l-19.57-24.7v24.7h-3.22V433.69H344Z" transform="translate(-76.48 -363.15)"/><path class="cls-2" d="M408.42,464.14H388.15V433.69h3.22v27.67h17.05Z" transform="translate(-76.48 -363.15)"/><path class="cls-2" d="M417,464.14h-3.22V433.69H417Z" transform="translate(-76.48 -363.15)"/><path class="cls-2" d="M448.35,448.92h3.09v11.61a14.65,14.65,0,0,1-5.05,2.87,18.63,18.63,0,0,1-6.13,1,16.73,16.73,0,0,1-8.22-2,14.7,14.7,0,0,1-5.74-5.54,16.13,16.13,0,0,1,0-15.88,14.8,14.8,0,0,1,5.74-5.55,16.94,16.94,0,0,1,8.26-2,17.89,17.89,0,0,1,6.4,1.11,12.7,12.7,0,0,1,4.91,3.29l-2,2a12.49,12.49,0,0,0-9.18-3.57,13.72,13.72,0,0,0-6.67,1.63,12,12,0,0,0-4.68,4.53,13.09,13.09,0,0,0,0,12.9,12.19,12.19,0,0,0,4.66,4.52,13.41,13.41,0,0,0,6.65,1.65,13.23,13.23,0,0,0,8-2.35Z" transform="translate(-76.48 -363.15)"/><path class="cls-2" d="M482.8,447.27V433.69H486v30.45H482.8V450.09H463.75v14.05h-3.22V433.69h3.22v13.58Z" transform="translate(-76.48 -363.15)"/><path class="cls-2" d="M505,464.14h-3.22V436.48h-10.7v-2.79h24.62v2.79H505Z" transform="translate(-76.48 -363.15)"/></svg>